<svg xmlns="http://www.w3.org/2000/svg" viewBox="0 0 808.77 480"><g id="レイヤー_2" data-name="レイヤー 2"><g id="レイヤー_1-2" data-name="レイヤー 1"><g id="レイヤー_2-2" data-name="レイヤー 2"><g id="レイヤー_1-2-2" data-name="レイヤー 1-2"><path d="M606.57 182h.19a90.65 90.65 0 0064.44-26.83 4.76 4.76 0 00.94-4.72 123.32 123.32 0 00-36.47-53.49 4.2 4.2 0 00-2.84-1.13 4.6 4.6 0 00-4.53 4.54v3.4a135.23 135.23 0 01-25.13 71.05 4.46 4.46 0 00.94 6.24 3.58 3.58 0 002.46.94zm19.65-113.4a4.56 4.56 0 00-2.83 5.86 6 6 0 001.89 2.45l3 1.89a133.28 133.28 0 0148.94 57.26 4.54 4.54 0 004.16 2.65 4.36 4.36 0 003.78-2.08 92.18 92.18 0 009.07-69.54 4.77 4.77 0 00-3.59-3.22 123.36 123.36 0 00-64.44 4.73zm-11.34 43.09a2.64 2.64 0 00-1.13.37l-7.18 4a132.41 132.41 0 01-61.23 14.74H541l47.44 47.43a125.31 125.31 0 0028.91-63.68 2.36 2.36 0 00-1.89-2.65 1.53 1.53 0 00-.58-.21zm-33.64-23.63a2.05 2.05 0 001.33.57 2.18 2.18 0 002.26-2.27c0-3.59.19-7.75.19-8.12A133.45 133.45 0 01612.8 3.78a2.35 2.35 0 00-.37-3.21A9.26 9.26 0 00611.1 0h-4.72A89.9 89.9 0 00541 28a2.5 2.5 0 00-.56 2.27 126.37 126.37 0 0040.8 57.79zm20.41-19.84a5 5 0 002.27-.57l3-1.7a134.91 134.91 0 0160.67-14.74A103.81 103.81 0 01681 52h.57a4.6 4.6 0 004.54-4.54 5 5 0 00-.57-2.26A89.73 89.73 0 00630 3.21h-1.13a5.16 5.16 0 00-3.59 1.51 125.76 125.76 0 00-28.16 58.4 4.77 4.77 0 004.16 5.1zm-72.19 51.02a117 117 0 0016.26 1.14 122.79 122.79 0 0041.19-7.18 4.65 4.65 0 002.84-5.86 6.21 6.21 0 00-1.89-2.46l-3-1.89a133.85 133.85 0 01-48.94-57.45 4.54 4.54 0 00-4.16-2.64 4.15 4.15 0 00-3.76 2.27 93.84 93.84 0 00-11 61.41z" fill="#ff8a48"/><path d="M452.55 79.94l140.22 140.22a1 1 0 00.76.38h9.26a.89.89 0 00.94-.95 1.91 1.91 0 00-.19-.57L458.41 73.7a.91.91 0 00-1.32 0l-4.54 4.73a1.14 1.14 0 000 1.51zm77.29 96.56L411.73 58.58a.91.91 0 00-1.32 0l-4.54 4.54a.92.92 0 000 1.32L524 182.55a.92.92 0 001.33 0l4.53-4.53a1.16 1.16 0 000-1.52zM390.19 80.13L530 220a1 1 0 00.76.38h9.26a.89.89 0 00.94-.95 1.91 1.91 0 00-.19-.57L396.43 74.46a.92.92 0 00-1.33 0L390.57 79c-.76.37-.76.75-.38 1.13zM374.5 95.81L498.66 220a1 1 0 00.76.38h9.26a.89.89 0 00.94-.95 1.91 1.91 0 00-.19-.57L380.55 90a.91.91 0 00-1.32 0l-4.54 4.54a.8.8 0 00-.19 1.32zm-15.68 15.88l85.79 85.79a.92.92 0 001.33 0l4.53-4.54a.91.91 0 000-1.32l-85.79-85.79a.92.92 0 00-1.33 0l-4.53 4.53c-.38.19-.38.76 0 1.33zm-15.5 15.68l80.88 80.88a.92.92 0 001.33 0l4.34-4.53a.92.92 0 000-1.33L349 121.51a.91.91 0 00-1.32 0l-4.54 4.54a1.15 1.15 0 00.18 1.32zm32.51 51.78L333.69 137a.92.92 0 00-1.33 0l-4.53 4.53a.92.92 0 000 1.33L370 185.2a.92.92 0 001.32 0l4.54-4.54a1.17 1.17 0 000-1.51zm-63.69-20.41l61.42 61.42a1 1 0 00.75.38h9.26a.9.9 0 00.95-.95 1.91 1.91 0 00-.19-.57l-65.95-66.14a.91.91 0 00-1.32 0l-4.54 4.54c-.76.19-.95.75-.38 1.32zm-15.68 15.69l45.73 45.73a1 1 0 00.75.38h9.26a.9.9 0 00.95-.95 1.91 1.91 0 00-.15-.59l-50.65-50.64a.91.91 0 00-1.32 0l-4.53 4.53a1.15 1.15 0 00-.04 1.54zm-15.69 15.68l30.05 30a1 1 0 00.75.38h9.26a.9.9 0 00.95-.95 1.91 1.91 0 00-.19-.57l-34.77-34.58a.91.91 0 00-1.32 0L281 189c-.57.19-.57.75-.19 1.13zm-15.49 15.69l14.36 14.36a1 1 0 00.75.38h9.26a.9.9 0 001-.95 1.91 1.91 0 00-.19-.57l-18.9-18.89a.91.91 0 00-1.32 0l-4.54 4.53c-.75.19-.75.76-.37 1.14zm-15.88 14.55h11.15l-4.91-4.92a.94.94 0 00-1.33 0zM807.83 394a.89.89 0 00.94-.95 1.44 1.44 0 00-.38-.76l-328.82-329-.18.19-4-4a.92.92 0 00-1.33 0l-4.53 4.53a.92.92 0 000 1.33l154.8 154.82h.38L798 393.45c.19.19.38.19.76.38zM525.12 260.22v.38c0 1.13-.76 1.13-1.51 1.13a2.08 2.08 0 00-1.52 0c-.56 0-1.7-.38-1.51-1.13v-2.84c0-1.13-.56-1.32-1.32-1.32h-10.2a10.27 10.27 0 01-3.41 0h-3.4a10.21 10.21 0 01-3.4 0h-6.8c-1.14 0-1.33.38-1.33 1.13a7.15 7.15 0 010 2.84c0 .57-.56 1.13-1.51 1.13a2.06 2.06 0 00-1.51 0 1.32 1.32 0 01-1.51-1.13v-7a1.72 1.72 0 011.13-1.14h1.89a6.26 6.26 0 001.89 0 6.27 6.27 0 011.89 0 3.2 3.2 0 011.89 0 3.87 3.87 0 012.08 0H499a4.59 4.59 0 002.27 0c.56 0 1.7 0 1.7-.75V250a1.06 1.06 0 011.13-1h.57a4 4 0 001.51 0h1.51a.7.7 0 01.76.76c0 .56-.76.56-.76 1.51s1.14 1.13 1.89.94a4.59 4.59 0 002.27 0H514a4.59 4.59 0 002.27 0 3.2 3.2 0 001.89 0 6.3 6.3 0 011.89 0 3.2 3.2 0 001.89 0 3.2 3.2 0 001.89 0c.75.19 1.13.57 1.13 1.14v2.27a3.81 3.81 0 000 2.07 11.55 11.55 0 00.16 2.53zm-3.78 18.14a3.19 3.19 0 000 1.89 3.19 3.19 0 000 1.89 3.19 3.19 0 000 1.89c-.19.57 0 1 0 1.89v3.21c0 .95-.38 1.52-1.32 1.33h-1.33a1.15 1.15 0 01-1.32-.57 1.45 1.45 0 00-.94-.38 2.08 2.08 0 00-1.52 0H506a7.1 7.1 0 01-2.83 0 7.15 7.15 0 01-2.84 0h-3.21a2.05 2.05 0 00-1.51 0c-.57.38-.95.19-1.14.76a1.13 1.13 0 01-1.13.56h-1.7c-.95 0-1.32-.94-1.32-1.89V284a3.2 3.2 0 010-1.89v-1.89a3.19 3.19 0 000-1.89v-2.64a1.29 1.29 0 011.32-1.33h6.05a6.18 6.18 0 012.64 0 7.15 7.15 0 002.84 0 6.17 6.17 0 002.64 0h2.65a6.17 6.17 0 012.64 0h5.29a3.2 3.2 0 001.89 0h1.89a1.26 1.26 0 011.14 1.33 12.23 12.23 0 00.03 2.67zm-29.1-17.95a1.19 1.19 0 000-1.13c0-.76 0-1.33 1.13-1.52h5.1a11.36 11.36 0 003.59 0 3.19 3.19 0 001.89 0c.38.19 1.14-.19 1.7 0h3.41a5.11 5.11 0 001.7 0 2.61 2.61 0 011.7 0 6.15 6.15 0 001.89 0h3.4c.75 0 1.13.76 1.32 1.52v1.13c0 .94-.57 1.7-1.32 1.51a6.23 6.23 0 00-2.65 0h-11a3.19 3.19 0 00-1.89 0c-1.32-.19-2.45.19-3.59 0a10.35 10.35 0 00-2.46 0 6.18 6.18 0 01-2.64 0c-1.09.19-1.09-.57-1.28-1.51zm1.7 11.72v-7.56c0-.95.56-1.33 1.51-1.33h1.32a3.2 3.2 0 001.89 0h17a2 2 0 011.13 1.33v2.64a4 4 0 000 1.51 9.17 9.17 0 010 3.22c-.19.94-.37 1.13-1.51 1.51H514c-.57 0-1.14 0-1.14-.38a2.61 2.61 0 00-1.7-.57 9 9 0 01-2.26 0 3.2 3.2 0 00-1.89 0 6.27 6.27 0 01-1.89 0 6.26 6.26 0 00-1.89 0h-1.89a9 9 0 01-2.27 0c-.76-.19-1.7 0-1.7.57-.19.57-.95.38-1.14.38a3 3 0 01-1.32 0c-.75 0-.94-.38-.94-1.32zm9.26 13a1.21 1.21 0 000-1.14 2.32 2.32 0 00-1.89-.38h-4.92c-1.13 0-2.08-.37-2.08 1.14 0 .75.95.94 2.08.75h4.92a3.18 3.18 0 001.89-.37zm-6.81-5.11h4.92c.75 0 1.89 0 2.08-.37a1.27 1.27 0 000-1.14c-.19-.38-.95-.38-1.7-.57h-6.05c-.95.19-1.33.38-1.33 1.14-.18.61.95.98 2.08.98zm3.61-11.11h1.89a3.2 3.2 0 001.89 0 3.2 3.2 0 001.89 0 3.2 3.2 0 001.89 0 6.3 6.3 0 001.89 0h1.89c.57 0 1.7-.19 1.7-.94a1.28 1.28 0 00-1.32-1.32 8.51 8.51 0 01-3 0 16.14 16.14 0 00-3 0 9.61 9.61 0 01-3.21 0 8.07 8.07 0 00-3 0c-1.14.18-1.33.18-1.33 1.13s1.14 1.13 1.89 1.13zm14.74 11.15c1.14 0 2.27 0 2.27-.94a1.26 1.26 0 00-1.32-1.14h-6.24a2 2 0 00-1.51.38 1.45 1.45 0 00-.38.95c.57.75.76.56 2.27.56h2.46a11.51 11.51 0 002.45.19zm1.89 3.78a2.65 2.65 0 00-1.7-.19H510c-.76 0-1.89.19-2.08.57a.58.58 0 000 .76 2.14 2.14 0 002.08.56 5.38 5.38 0 002.46 0h2.83c.76 0 1.89-.19 1.89-.75a2.53 2.53 0 00-.57-1zm54.6-17.19c0 .56-.38.94-1.14 1.13a3.83 3.83 0 01-2.07 0h-11.91a3.06 3.06 0 00-2.08.94c-.75.76-.94.95-.75 1.33a2.05 2.05 0 000 1.51v1.89a4.06 4.06 0 010 2.08v1.89a3.85 3.85 0 000 2.08 5.07 5.07 0 000 1.7 3.24 3.24 0 002.07 2.08h4.16a4.06 4.06 0 002.08 0h2.08a8 8 0 002.08 0 3.2 3.2 0 011.89 0c.75 0 1.13.75 1.13 1.51a2.06 2.06 0 010 1.51c0 .94-.57 1.51-1.13 1.51h-6a12.36 12.36 0 01-2.65 0c-.75-.19-1.88.19-2.64 0h-13.28a12.23 12.23 0 01-2.64 0h-5.86c-.76.19-1.33-.57-1.33-1.51v-1.51a1.45 1.45 0 011.33-1.51h5.67a3.87 3.87 0 012.08 0 7.93 7.93 0 002.07 0h1.7a3.58 3.58 0 002.27-2.08 7.68 7.68 0 01.19-2.08v-1.7a3.2 3.2 0 010-1.89v-2.08a6.3 6.3 0 010-1.89 3.93 3.93 0 00-.57-2.46 8 8 0 00-2.07-1.32H544a4.59 4.59 0 01-2.27 0h-4.16a3.2 3.2 0 01-1.89 0 6.27 6.27 0 01-1.89 0 3.87 3.87 0 00-2.08 0c-.94.19-1.13-.57-1.13-1.51v-1.51c0-.57.38-1.52 1.13-1.52a3.87 3.87 0 002.08 0 7.72 7.72 0 012.08.19 6.27 6.27 0 011.89 0c.76.19 1.13-.19 1.89 0a4.59 4.59 0 002.27 0h2.26a3.85 3.85 0 002.08 0c1 .19 2.46-1.32 2.46-1.89v-2.64a3.85 3.85 0 010-2.08v-4c0-.94.19-1.32 1-1.32H552a5.23 5.23 0 001.7.19c.19-.19.57 0 .76.19v.18c0 .76-.19.76-.38.95a1 1 0 00-.38.76v5.48a1.6 1.6 0 000 1.32v1.51c0 .38 1.33 1.51 2.08 1.32a5.38 5.38 0 002.46 0 5.38 5.38 0 002.46 0 4.55 4.55 0 002.26 0h7.56c.57.19 1.33.38 1.33 1.14v1.51c-.57.38-.57.57-.57.57zm43.46-7.75c0 .56-.38.56-.56.56s-.19.57-.38.57a3.87 3.87 0 000 2.08c0 .76-.38 1.7 0 2.46a3.62 3.62 0 010 2.45 18.19 18.19 0 000 3.22v6.42a9.11 9.11 0 000 3.21 3.19 3.19 0 000 1.89 6.3 6.3 0 000 1.89 3.2 3.2 0 000 1.89v1.89a1.82 1.82 0 01-1.32 1.7h-.19a2.61 2.61 0 01-1.7 0c-.95 0-1.71-.56-1.52-1.51v-.94c0-.19-.37-.38-.94-.76a6.76 6.76 0 00-2.08-.38h-6.61a18.19 18.19 0 01-3.22 0c-.94-.19-2.26.19-3.21 0a9.11 9.11 0 01-3.21 0 10.21 10.21 0 01-3.4 0 4 4 0 01-1.52 0c-.37 0-1.32.76-1.32 1.14v1.51c0 .94-.57 1.32-1.51 1.51h-2.08c-.75 0-.94-.57-1.13-1.32a4.59 4.59 0 000-2.27 6.22 6.22 0 000-2.65v-20.78a3.2 3.2 0 000-1.89v-2.08c0-.95.56-1.32 1.13-1.32h1.89a5.39 5.39 0 001.7 0c.57 0 .76.18.76.56a1 1 0 01-.38.76c-.19.19-.38.19-.38.57a4.55 4.55 0 000 2.26V264a5.38 5.38 0 000 2.46 3.2 3.2 0 000 1.89v1.89a3.2 3.2 0 000 1.89v3.78a3.2 3.2 0 010 1.89v1.89c0 .56.38.75.76 1.13a2.13 2.13 0 001.51.57h5.67a2.25 2.25 0 001.51-.76c.57-.57.95-.94.95-1.51a7.15 7.15 0 010-2.84v-5.48a6.17 6.17 0 010-2.64v-2.84a6.5 6.5 0 000-2.64 6.21 6.21 0 010-2.65v-3.78a3.85 3.85 0 010-2.08v-2.08a1.07 1.07 0 01.75-1.32h4.16c.19 0 .75 0 .75.57s-.37.57-.37.75a1.45 1.45 0 00-.38.95v1.7a5.38 5.38 0 000 2.46 5.34 5.34 0 010 2.45 6.21 6.21 0 010 2.65v2.64a7.15 7.15 0 000 2.84v11a2.28 2.28 0 00.57 1.89 1.8 1.8 0 001.89.57h5.66l1.71-.57a1.72 1.72 0 00.75-1.51c0-.76.19-.76 0-1.32v-13.27a7.49 7.49 0 010-2.08v-1.89a3.85 3.85 0 010-2.08 1.22 1.22 0 011.14-1.13h.18a3.37 3.37 0 001.89 0h1.89c-.19.61.19.94.19 1.51zm-123.02 62.55c-.57-.57-.76-.38-1.32-.95s-1-.56-1.33-.94c-.19 0-.56-.57-.56-.95s.19-.37.37-.94A13.17 13.17 0 00490 316a1.17 1.17 0 011.13-.76 12.21 12.21 0 011.51.57c.76.19 1.33.94 2.08 1.32a8.28 8.28 0 002.08 1.51c.38.57.76.57 1.32 1.14a1.46 1.46 0 01.38 1.89l-.19.19a7.4 7.4 0 00-1.51 1.89c-.38.56-.94.75-1.13.56s-1.32-.37-1.51-.94c-.38-.57-.95-.76-1.14-1.14-.22-.23-.59-.03-1.35-.78zm31.75-5.67c0 .57-.38 1.13-1.33 2.27s-.94.94-1.32 1.51a12.14 12.14 0 01-1.51 1.7 6.64 6.64 0 01-1.7 1.51c-.76.57-1.32 1.32-1.51 1.32a13.66 13.66 0 00-1.7 1.71 7.76 7.76 0 01-1.89 1.51c-1 .56-1.14 1.13-1.89 1.51a17.35 17.35 0 01-1.89 1.51c-.76.38-1.33 1.32-1.89 1.32-.57.19-1.14 1.14-1.89 1.33s-.95.94-1.89 1.32-1.32 1.13-1.89 1.32c-.76.19-.95.95-2.08 1.14s-.76.56-1.13.75a5 5 0 00-1.14.95c-.38.37-.38 1.13-.94 1.13h-.19a1.26 1.26 0 01-.95-.76c-.38-.56-.75-1.13-1.13-1.7-.38-.37-.57-.75-.95-1.13-.18-.38-.37-.76-.56-1.13 0-.57.56-.95 1.13-1.14.76-.38 1.51-.94 2.46-1.32.75-.19 1.32-1 2.27-1.32s.56-.38 1.13-.76c.57-.19.76-.57 1.13-.76s.57-.56 1.14-.75.56-.57 1.13-.76 1.13-.94 1.7-1.13a14.31 14.31 0 001.7-1.13 10 10 0 001.7-1.33 10 10 0 011.52-1.32c.56-.38.94-1.13 1.51-1.32.75-.38.75-.76 1.51-1.33a5.19 5.19 0 011.51-1.32c.57-.38.95-1.13 1.51-1.51s.57-.76.95-.95a1.51 1.51 0 00.94-.94c.19 0 .38-.57.76-.95a2.3 2.3 0 01.94-.94c.57-.57.95-1.51 1.89-1.51s1.51 1.13 1.89 1.51a3 3 0 01.95 1.89zM496 309.92c-.38 0-.38-.57-.57-.94 0-.38.38-.76.38-1 .37-.57.75-.94 1.13-1.51a1.75 1.75 0 011.13-.76 2.7 2.7 0 011.14.38c.75.38.75.76 1.51.95a3.18 3.18 0 011.51 1.13c.38.38.95.76 1.32 1.13l1.33 1.33a1.33 1.33 0 01.56 1.13c0 .95-.56.95-.75 1.32s-.76.76-.95 1.14a1.53 1.53 0 01-1.13.75c-.76 0-.94-.56-1.51-.94l-1.1-1.09a2.51 2.51 0 01-1.32-1.13c-.38 0-.75-.75-1.32-1.13-.59 0-.78-.57-1.36-.76zm65 8.88v.38c-.19.76-.75.76-1.13 1.13l-.57.76-.94 1.89c-.38.76-.76 1.13-1.14 1.89a10.87 10.87 0 00-1.32 1.7c-.57.57-.75 1.32-1.51 1.7s-.95 1.14-1.7 1.14-1.14-.57-1.7-1.14a4.1 4.1 0 01-1-1.51 1 1 0 01.57-.94 12.24 12.24 0 001.7-1.52 4.8 4.8 0 001.32-1.51c.19-.19.57-.57.57-.75.38-.57.57-1.52-.57-1.14a19.23 19.23 0 00-2.26.57 3.16 3.16 0 00-1.89.57c-.76.18-1.33.18-2.08.37a2.28 2.28 0 00-1.51 1.89c0 .57.18.57 0 1 .18 1.13 0 1.13.56 1.89a2.74 2.74 0 00.38 1.32c0 .76.19.76.38 1.32s.19 1.14.38 1.7c0 .76.37 1.14.37 1.71s.38.94.38 1.7.38.94.38 1.7.38.56.19.94a3.43 3.43 0 00.38 1.32c.38 1.14 0 1.33-1.14 1.71a5.7 5.7 0 01-1.7.37h-.75c-.57 0-1-.37-.76-.94v-.19c-.19-.76-.38-1.51-.57-2.46-.19-.75-.37-1.51-.56-2.27a5 5 0 00-.57-2.26l-.57-2.27c-.19-.76-.37-1.51-.56-2.27 0-.94-.57-1.32-.57-2.27 0-.37-.95-1.7-1.7-1.7-.76.19-1 0-1.32.19-.57.19-1.14.19-1.71.38s-1.13.19-1.7.38c-.75.19-1.7.38-2.45.57-.76 0-.95-.19-1.33-1.14a1.42 1.42 0 00-.37-.94 2.41 2.41 0 01-.19-1.14.89.89 0 01.94-.94 4.36 4.36 0 001.51-.38c.76 0 1.33-.38 2.27-.38.76-.19 1.32-.38 2.08-.57a2.8 2.8 0 001.89-1.7 5.53 5.53 0 00-.38-2.45 5.55 5.55 0 01-.38-1.7c0-.57-.94-2.27-.75-2.65s.57-1.13 1.13-1.13a18.61 18.61 0 003.22-.38h.37c.38 0 .57.19.76.57 0 .37 0 .56-.19.75s0 .57-.19.76 0 1.13.38 2.08c.19.75.38 1.32.57 2.08a1.64 1.64 0 001.13 1.51 5.2 5.2 0 001.7.19c.95-.38.95 0 1.7-.57s1.32-.19 2.27-.57a22.8 22.8 0 002.27-.56 9.86 9.86 0 012.26-.57c.76-.19 1.14-.76 1.71-.76.75-.19 1.32.76 1.89 1.14a10.16 10.16 0 011.51.94c.07.71.61.9.61 1.46zm14.39 5.11c-.19-.38-.57-.76-.76-1.14-.19-.57-.57-.75-.76-1.13s-.56-.57-.75-1.14-.76-.94-.76-1.32a1.27 1.27 0 01.76-1.13c.38-.19.75-.57 1.13-.76a1.59 1.59 0 011.32-.38c.57.19.95.38 1.14.95l1.13 1.13a11.64 11.64 0 01.76 1.14 3.58 3.58 0 01.75 1.13 5.64 5.64 0 01.76 1.51 12.53 12.53 0 01.38 1.32c0 .57-.38 1-1 1.33s-1.13.56-1.7.94c-.38.19-.75.38-1.13.19a1.4 1.4 0 01-1-1.13 4.58 4.58 0 00-.27-1.51zm25.13-6.81v.19c-.19.57-.76.57-1.13.95a9.12 9.12 0 00-.76 2.07c-.19.57-.38.95-.57 1.52l-.56 1.51-.76 1.51c-.38.76-.76.95-.94 1.7s-.76 1.14-.95 1.7c-.38.57-.76.95-1.13 1.51a10.54 10.54 0 01-1.14 1.52 6.68 6.68 0 00-1.13 1.32 9.83 9.83 0 01-1.51 1.32 8.31 8.31 0 01-1.33 1.32c-.37.38-.75.38-1.13.76l-1.51.94c-.38.38-1 .38-1.32.76-.38.19-.95.57-1.33.76-.75 0-1.13.56-1.51.75l-1.89 1a2.71 2.71 0 01-1.32.38h-.38a1.6 1.6 0 01-1.32-1.59 7.43 7.43 0 01-.95-1.7c-.19-.56.76-.94 1.33-1.32a2 2 0 011.32-.57c.75 0 .94-.56 1.32-.75.38 0 1.14-.57 1.7-.76.76-.19.57-.57 1.32-.75s1.14-.95 1.89-1.33a12.63 12.63 0 001.89-1.51c.57-.57 1.33-1.13 1.89-1.7a9.47 9.47 0 001.33-1.51c.38-.57.75-.95 1.32-1.89a18.74 18.74 0 001.13-2.08 7 7 0 001-2.08 11.49 11.49 0 00.94-2.27c.19-.56.38-1.13.57-1.89.19-.37.19-1.13.38-1.7s.75-1.13.94-1.13.76.38 1.14.38.56.37.94.37c.57 0 .76.38 1.51.57.71.97.71 1.34.71 1.72zm-19.65-1.51a1.18 1.18 0 01.94-1.13c.38 0 .57-.38 1.13-.57a1.71 1.71 0 01.95-.19 1.26 1.26 0 011.32.76 8.58 8.58 0 00.76 1.32c.38.76.75 1.32 1.13 2.08a6.69 6.69 0 01.76 1.7 3.63 3.63 0 01.57 1.89c0 .75-.57.75-1.14 1.13s-.75.19-1.32.57c-.57.19-.57.38-1.14.38s-1.13-.95-1.32-1.33a3.43 3.43 0 01-.38-1.32c-.19-.38-.37-.94-.56-1.32s-.38-.95-.57-1.32a4 4 0 00-.76-1.14 9 9 0 01-.37-1.51zm53.48 7.18a2.5 2.5 0 00.56 2.27 7.53 7.53 0 001.89 1.51c.38 0 .57.57 1 .76a1.13 1.13 0 01.56 1.13 1 1 0 01-.56.95 8.54 8.54 0 00-1.32 1.51 1 1 0 01-.95.56 1.55 1.55 0 01-1.51-.56c-.19-.38-.76-.57-1.14-1.14s-.75-.37-.94-.75c-.38-.38-1.7.19-2.27.56s-.56.76-.94 1.14c-.38.57-.76.57-1.14.94a2.27 2.27 0 01-.94 1c-.38.38-1 .75-1.32 1.13s-.95.76-1.33 1.14a5.19 5.19 0 01-1.51 1.32 4.08 4.08 0 01-1.51.94c-.57.38-.95.95-1.32 1.14s-.76.75-1.33.75a9.19 9.19 0 00-1.7 1.14 9.83 9.83 0 01-2.08.94h-.19c-.75 0-1.13-.75-1.51-1.32s-1.32-1.32-1.32-2.08c.19-.76.57-.76.76-.94a4.33 4.33 0 011.32-.57c.75-.19.75-.57 1.32-.76.76-.19 1-.56 1.32-.75.57-.19.76-.76 1.33-.76a3.7 3.7 0 011.13-.75 11.64 11.64 0 011.14-.76c.37-.38.75-.57 1.13-1 .76-.37.76-.75.94-.94a6 6 0 001.14-.95c.38-.18.56-.56.94-.94a2.32 2.32 0 00.95-.94 2.27 2.27 0 00.94-.95c.38-.57 0-1.51-.75-2.08a3.9 3.9 0 00-1.89-.75 1.81 1.81 0 00-1.33-.38 1.2 1.2 0 01-1.13-.95 1.38 1.38 0 01.38-1.13 4 4 0 01.75-1.13 1.27 1.27 0 011.33-.76 4.48 4.48 0 011.51.38 3.33 3.33 0 001.89.75 7.64 7.64 0 001.7.95 3.27 3.27 0 002.08-1.32c.38-.76.75-1.33 1.13-2.08a21.22 21.22 0 001-2.46c.19-.57-.76-1.7-1.52-1.89h-4.44a3 3 0 00-1.7.57 5.43 5.43 0 00-1.51 1.51c-.57.57-.57 1.13-1.14 1.7s-.75 1.32-1.32 1.7-.76 1.32-1.32 1.7-.57.76-1 1.13-.57.95-.94 1.14-.57 1.13-1 1.13-.57.76-1.13.95-.57.56-1.14.94a1.15 1.15 0 01-1.32.57c-.75 0-1.13-.76-1.51-1.32-.38-.38-1.13-1.14-1.13-1.52a5.29 5.29 0 01.75-1.13c.19-.19.76-.57 1.14-.94a16 16 0 001.7-1.7l1.51-1.52c.75-.56.94-1.32 1.51-1.89a7.11 7.11 0 011.32-1.89c0-.37.57-.56.76-1.32s.57-.57.57-1.13c.18-.57.56-.57.75-1.14.19-.37.38-.94.57-1.32a13.05 13.05 0 01.94-2.46 8.94 8.94 0 011-2.64 1.27 1.27 0 01.75-.95h1c.57.19.94.38 1.51.57l1.7.57c.38.19.76.56.57.94s-.76.38-1.14.95c-.37.37-.18.75-.37.94a1.24 1.24 0 001.13 1.51h3.78a3.2 3.2 0 001.89 0c.57 0 .76-.56 1.51-.56s1.32.75 2.08 1.32c.38.38.94.76 1.32 1.13a4 4 0 01.76 1.14c-.19.75-.76.94-1.14 1.32s-.18.94-.56 1.32-.38 1.14-.76 1.89c-.38.57-.38 1.33-.75 1.89a4.72 4.72 0 00-.76 1.7 22.75 22.75 0 01-1.13 2.08zm49.32.23a1.05 1.05 0 01-.95 1.13h-21a15 15 0 00-2.84 0H650c-.75 0-1.13-.56-1.13-1.32v-1.89c0-.75.38-1.51 1.13-1.51h9.26a4.59 4.59 0 002.27 0h.19a3.85 3.85 0 002.08 0h9.07a5.34 5.34 0 002.45 0H682a1.09 1.09 0 011.13 1.13v.38zm-160.44 48.91v1.51a1.35 1.35 0 01-1.32 1.51h-2.65a5.38 5.38 0 01-2.46 0h-6a2.61 2.61 0 00-2.5 2.07c0 .94-.38 1.51-.38 2.08s-.57 1.51-.57 2.08a5.5 5.5 0 01-.75 1.89 4.84 4.84 0 00-1 1.7 10.23 10.23 0 01-1.13 1.51c-.19.56-1.13.94-1.32 1.51s-.76.57-1.51 1.32-1.33.95-1.71 1.33-1.13.56-1.7 1.13-.75.38-1.13.57a5.09 5.09 0 01-1.32.75h-.38c-.76 0-1.14-.94-1.32-1.51-.38-.57-1.14-1.13-1.14-1.89-.19-.38 0-.94.76-1.13a11.61 11.61 0 002.08-1.14 13.06 13.06 0 002.08-1.32 4.59 4.59 0 001.7-1.51 7.76 7.76 0 001.51-1.89 4.57 4.57 0 001.13-2.08 9.19 9.19 0 00.76-2.08 12.53 12.53 0 00.38-1.32c0-.76-.38-2.27-1.71-2.27h-12.8c-1.13 0-1.13-.57-1.13-1.51v-1.7c0-.76.19-1.51 1.13-1.51H496a7.93 7.93 0 002.07 0 4.09 4.09 0 011.52 0h2.08a2 2 0 001.88-1.52v-1.89a1.37 1.37 0 00-1.7-1.51 5.25 5.25 0 01-1.51.19 3.9 3.9 0 01-2.08.19c-1.13.19-2.08.19-2.83.38s-1.32.19-2.08.38a1.64 1.64 0 01-1.51-1.14c-.19-.75-.38-1.51-.57-2.08-.38-.94.38-1.51 1.32-1.32a5 5 0 001.71 0h3.4a5.23 5.23 0 001.7-.19c.56-.19 1.32 0 1.7-.38.57 0 1.13-.19 1.7-.19a5.77 5.77 0 011.7-.37 3.53 3.53 0 001.51-.38c.57 0 1.14-.57 1.89-.57l1.89-.56c.57 0 1.13-.57 1.89-.76s1.13-.76 1.7-.76a1.14 1.14 0 01.76-.19 1.62 1.62 0 011.13.57 8.65 8.65 0 011.32 1.32l1.14 1.14a1.59 1.59 0 01.56 1.13c-.18.57-.56.57-1.13.57a6.82 6.82 0 00-2.08.38 13 13 0 00-1.51.56c-.38.19-.76.19-1.13.38a10.39 10.39 0 01-1.89.57 1.93 1.93 0 00-.95.75c-.19.38-.75.95-.56 1.33v2.83a2.9 2.9 0 002.26 1.89h7.75a3.19 3.19 0 011.89 0 2.07 2.07 0 011.51 0c.95 0 1.33.57 1.33 1.51zm39.87-1.14v.23c-.19 1-.75.76-1.13 1.13l-.57.76c-.38.76-.57 1.13-.94 1.89s-.76 1.13-1.14 1.89a10.87 10.87 0 00-1.32 1.7c-.57.57-.76 1.32-1.51 1.7-.57.38-1 1.14-1.7 1.14s-1.14-.57-1.7-1.14a3.64 3.64 0 01-1-1.7 1 1 0 01.57-.94 12.24 12.24 0 001.7-1.52 4.93 4.93 0 001.32-1.51c.19-.19.57-.56.57-.75.38-.57.57-1.52-.57-1.14a20 20 0 00-2.27.57 3.2 3.2 0 00-1.89.57c-.75.19-1.32.19-2.07.37a2.31 2.31 0 00-1.52 1.89c0 .57.19.57.19.95.19 1.13 0 1.13.57 1.89a2.71 2.71 0 00.38 1.32c0 .76.19.76.38 1.32s.19 1.14.37 1.71c0 .75.38 1.13.38 1.7s.38.94.38 1.7.38.94.38 1.7.38.56.19.94a3.69 3.69 0 00.37 1.33c.38 1.13 0 1.32-1.13 1.7a5.77 5.77 0 01-1.7.37H548a.89.89 0 01-.94-.94v-.19c-.19-.76-.38-1.51-.57-2.46-.19-.75-.38-1.51-.56-2.26a5 5 0 00-.57-2.27l-.57-2.27-.57-2.27c0-.94-.56-1.32-.56-2.27 0-.37-.95-1.7-1.7-1.7-.76.19-1 0-1.33.19a4.44 4.44 0 01-1.7.38l-1.7.38c-.75.19-1.7.38-2.45.57-.76 0-1-.19-1.33-1.14a1.47 1.47 0 00-.37-.94 2.41 2.41 0 01-.19-1.14.89.89 0 01.94-.94 4.36 4.36 0 001.51-.38c.76 0 1.33-.38 2.27-.38.76-.19 1.32-.38 2.08-.56a2.86 2.86 0 001.89-1.71 5.53 5.53 0 00-.38-2.45 5.55 5.55 0 01-.38-1.7c-.19-.38-.94-2.27-.75-2.65s.56-1.13 1.13-1.13a18.38 18.38 0 003.21-.38h.38c.38 0 .57.19.76.57 0 .37 0 .56-.19.75s0 .57-.19.76 0 1.13.38 2.08c.19.75.38 1.32.56 2.08 0 .75.57 1.13 1.14 1.51a5.2 5.2 0 001.7.19c.94-.38.94 0 1.7-.57l2.27-.57a14.3 14.3 0 002.27-.56 9.86 9.86 0 012.26-.57c.76-.19 1.14-.76 1.7-.76s1.14.76 1.89 1.33a4 4 0 011.52.94c.16.89.54 1.09.54 1.66zm10.96-4.72c-.56-.76-.75-.38-1.7-.95a1.33 1.33 0 01-.75-.94 1.62 1.62 0 01.56-1.14 9.41 9.41 0 001.14-1.32 1 1 0 011.13-.76 3.43 3.43 0 011.32.38c.38.19 1 .57 1.33.76a3.53 3.53 0 011.32.94c.57.38.57.57.76.57a23.28 23.28 0 011.89 1.51 19.06 19.06 0 011.7 1.89 1.5 1.5 0 01.37.76c0 .56-.37.75-.56 1.13a16.85 16.85 0 00-1.7 1.89c-.19.57-1 .57-1.33.57s-.94-.57-1.32-.95-1.13-.75-1.32-1.51-1.14-.75-1.51-1.32c-.19-.95-.95-.95-1.33-1.51zm29.67 2.45c-.19.38-.75.57-.94 1.14s-.95.56-1.14 1.32-1.13.76-1.13 1.32-.76.76-1.13 1.14c-.76.75-.95 1.13-1.33 1.51-.38.19-.75.76-.94.94a1.56 1.56 0 00-1 .95c-.19.57-.75.57-.94.94s-.76.57-1 .76c-.19.38-.75.38-.94.94-.38.19-.76.57-1.14.76-.56.38-.56.57-1.13.76a1.77 1.77 0 01-1.13.75c-.57.19-.76.76-1.14.76a4.26 4.26 0 00-1.13.75l-1.13.76c-.57.19-.57.57-1.14.76s-.75.56-1.13.75-.76.57-1.14.76-.56.75-1.13.75-.76.57-1.13.57a5.79 5.79 0 00-1.89 1 6.28 6.28 0 00-1.52.94c-.37.19-.37.76-.75.76h-.38c-.38 0-.57-.19-.94-.57a3.34 3.34 0 00-.95-1.51c-.57-.38-.38-1-.76-1.14a2 2 0 01-.56-1.32c0-.76.94-1.13 1.89-1.32a4.42 4.42 0 001.89-.76c.56-.19 1.13-.57 1.7-.75a7.64 7.64 0 001.7-.95 8 8 0 001.8-.97c.57-.38 1.13-.57 1.7-1a8.12 8.12 0 011.51-1.13 3.14 3.14 0 001.51-1.14 4.69 4.69 0 011.52-1.13c.56-.38.75-.76 1.32-1.13s.94-.76 1.51-1.14c.38-.38.95-.75 1.32-1.13a7.1 7.1 0 011.33-1.14 32840422686257.16 32840422686257.16 0 012.64-2.64 7.75 7.75 0 011.14-1.32c.56-.38.75-.95 1.13-1.33.38-.56.94-1.13 1.32-1.7a6 6 0 011.51-1.51c1.14-.57 1.33.57 1.89 1.13a3.34 3.34 0 01.76.95 1.64 1.64 0 01.57 1.13c.19.79-.38.98-.95 1.73zm41.2 17.39c0 .57-.38.57-.57.94l-1.89 1.52a1.4 1.4 0 01-2.27-.57c-.18-.57-.75-.76-1.13-1.51l-.57-.76a6 6 0 01-1.32-1.7c-.75-.57-.75-1.13-1.51-1.51a154.88 154.88 0 00-2.27-1.89 5 5 0 00-1.13-1 2.89 2.89 0 00-3.78 0 11.51 11.51 0 01-2.27 2.08c-.57.38-1.13 1.14-1.89 1.33-.57.19-1.13.94-1.89 1.32s-.76.75-1.7 1.13a6.21 6.21 0 00-1.32.76 6.69 6.69 0 00-1.51.94 5.69 5.69 0 01-1.52.76 3 3 0 01-1.32.76 3.1 3.1 0 01-1.7.56h-.57c-.75 0-.75-.75-1.13-1.51s-.95-.94-.95-1.7c.19-1.13.76-1.32 1.14-1.32a12.87 12.87 0 001.51-.57c.76-.19.94-.57 1.51-.76s.76-.56 1.51-.75.76-.57 1.33-.76 1.32-.94 1.89-1.13 1.13-1 1.89-1.32a12.84 12.84 0 001.7-1.52 16.65 16.65 0 011.89-1.51 12.73 12.73 0 001.7-1.51c.56-.76 1.13-.94 1.51-1.7s.94-1 1.51-1.7 1.13-1.14 1.32-1.89a7.53 7.53 0 011-1.32 1.2 1.2 0 00-.57-1.52c-.19-.18-.38-.18-.75 0a14.28 14.28 0 00-2.84.19 2.61 2.61 0 01-1.7 0 5.07 5.07 0 01-1.7 0c-.76-.19-2.46.38-3.4.19h-1.51c-.76 0-1.52.19-1.89.19h-2.08a1.43 1.43 0 01-1.33-.94v-2.46a1.31 1.31 0 011-1.51H619a7.1 7.1 0 002.83 0h2.84a14.09 14.09 0 012.83 0c1 .19 1.14-.19 1.89 0s1-.19 1.89 0a7.59 7.59 0 002.08 0h1.7c.57 0 .76-.57 1.33-.57.75 0 1.32.95 2.07 1.32.76.57 1 1 1.52 1.33a.69.69 0 01.37.94c-.19.76-.37.76-.94 1.14-.38.37-.57.75-1 .94a2.91 2.91 0 01-1.13 1.51c-.38.76-.94 1.32-1.32 2.08a6.41 6.41 0 01-.95 1.51 3.39 3.39 0 01-.94 1.33 2.22 2.22 0 00.56 3.21c.57.38.76.75 1.33.94a8.16 8.16 0 001.32 1.14c.57.37.76.75 1.32 1.13s.38.76 1.33 1.13c.75.38.56.76.94.95s.38.76.95.94.37.76.94 1.14a3.31 3.31 0 01.76.94 1.74 1.74 0 01.75 1.51zm12.66 6.99h-.19c-.75 0-.75-.57-1.13-.94-.57-.38-.38-.76-.95-1.14a2.34 2.34 0 01-.75-1.32.85.85 0 01.75-.94c.76-.19 1.14-.76 1.7-.76s.76-.57 1.52-.76 1.13-.75 1.51-.94a5 5 0 001.13-.95 2.48 2.48 0 001.32-1.13c.76-.76.76-1.13 1.33-1.32.56-.38.75-1.14 1.13-1.51s.57-.95.95-1.33.37-.94.75-1.51c.19-.57.38-.94.57-1.51 0-.38.19-.57.38-1.13a1.29 1.29 0 00.19-1.14c0-.38.18-.75 0-1.13a1.48 1.48 0 00-1.14-1.7H658a10.65 10.65 0 01-2.46 0 6.18 6.18 0 01-2.64 0c-.76.19-1.14-.76-1.14-1.52v-1.7c0-.94.19-1.51 1.14-1.51h5.1a4.59 4.59 0 002.27 0 3.2 3.2 0 001.89 0h3.4a2.34 2.34 0 002.45-2.27v-.37a5.24 5.24 0 010-1.7v-5.11c-.18-.56.19-.94.76-1.13h4.72c.19 0 .76.19.76.57a1.35 1.35 0 01-.57 1.13c-.37.19-.37.57-.37.95v5.66c0 1.33 1.13 2.08 2.64 2.27a8.93 8.93 0 002.27 0 9.11 9.11 0 003.21 0h1.7a3.19 3.19 0 001.89 0h1.7a1.06 1.06 0 01.95 1.14v2.64c0 1-.57 1.51-1.14 1.32a6.17 6.17 0 01-2.64 0h-8.69a1.94 1.94 0 00-1.52 1 5.84 5.84 0 00-.75 1.89c0 1.13-.38 1.51-.38 2.27a11.43 11.43 0 00-.57 2.45 11 11 0 01-.75 2.27c-.38.57-.19 1.14-.76 1.51s-.57 1.14-.94 1.51a8.26 8.26 0 00-1.14 1.33c-.38.56-.94.75-1.13 1.32s-1 .76-1.32 1.13c-.19.38-.95.57-1.33 1.14-.38.38-.94.57-1.32.94a6.41 6.41 0 00-1.51.95 4.57 4.57 0 01-2.08 1.13 2.64 2.64 0 00-2.11-.05zm66.52-7.56a7.09 7.09 0 01.19 2.08c0 1-.19 1.32-.76 1.51-.37.19-.94.19-1.32.38-.76 0-1.13.38-1.7 0s-.95.38-1.7.19-1.32.19-2.08 0H706c-.38 0-1-.19-1.51-.19a6.62 6.62 0 01-1.89-.38c-.57 0-1-.56-1.7-.75s-1-.76-1.33-1.14-.37-1.13-.56-1.7-.19-1.13-.38-1.89a2.61 2.61 0 010-1.7v-8.31a3.87 3.87 0 000-2.08 7.63 7.63 0 010-2.08v-9.45c0-.94.75-1.13 1.32-1.13h3.78c.57 0 .95 0 1.13.56s0 .57-.37.76a1 1 0 00-.57.94v7c0 1.51.94 1.89 2.08 1.51a11.8 11.8 0 002.27-.95 2.6 2.6 0 011.13-.37 3.35 3.35 0 001.89-.76c.57 0 .94-.76 1.89-.76.76-.18.94-.75 1.51-.75s.76-.76 1.51-.95.57-.56 1.33-.94.56-.57.94-.57a1 1 0 01.95.57l1.32 1.32 1.32 1.14c.19 0 .76.75.57 1.13s-1 .38-1.32.57a6.37 6.37 0 00-1.71.75 11.73 11.73 0 00-1.51.76c-.75.19-.94.56-1.51.75a11.17 11.17 0 00-1.51.76c-.76.38-1.32.57-2.08.94a9.19 9.19 0 01-2.08.76c-.75 0-1.51.76-2.08.76l-.94.37-2.27.76a2.84 2.84 0 00-2.08 2.65v2.07a7.15 7.15 0 000 2.84 6.4 6.4 0 00.19 1.89 1.89 1.89 0 001.89 1.32 5.38 5.38 0 002.46 0h1.89a4.55 4.55 0 012.26 0 9.21 9.21 0 012.27-.19h2.27l2.27-.19a3.94 3.94 0 001.7-.37c.94-.38.94 0 1.51 0s1.67-.19 1.86.56zm3-22.49c0 .57-.19.57-.37.95 0 .19-.19.38-.38.57a1.18 1.18 0 01-1.32.37c-.76-.18-.95-.94-1.33-1.13s-.75-.94-1.32-1.13-.57-.38-1.13-.76-.57-.38-.76-.94c0-.38 0-.95.19-1.14a1.93 1.93 0 011.51-.94c.57 0 .76.38 1.51.75a3.74 3.74 0 011.32 1.14c.38.37 1 .75 1.33 1.13.19.19.75.57.75 1.13zm3.22-4.91a1 1 0 01.37.76 1 1 0 01-.56.94c-.19.19-.38.19-.38.38-.19.38-.76.76-1.13.57-.76 0-.95-.76-1.52-1.14s-.75-.75-1.32-1.13-.75-.57-1.32-.95a.91.91 0 01-.57-1.13c0-.38.19-.57.38-.94s.76-.95 1.13-.95h.19c.57 0 1 .57 1.51.76s.76.75 1.33 1.13c.56.19.94.95 1.32 1.13zm-579.2-109.79h18.71a1 1 0 01.95.56l13.79 39.12h.19l13.8-39.12a1 1 0 01.94-.56H218a.89.89 0 01.95.94v59a.9.9 0 01-.95 1h-11.5a.89.89 0 01-.94-1V262.3l-15.87 46.11a1 1 0 01-.95.57h-8.88a1 1 0 01-1-.57l-15.3-46.11V308a.9.9 0 01-1 1h-11.43a.89.89 0 01-.94-1v-59a.89.89 0 01.94-.94zm107.34 29.48H249a.89.89 0 00-.94.94v12.85a18.15 18.15 0 00.19 3.21 5.46 5.46 0 00.75 2.46 3 3 0 001.89 1.51 8.82 8.82 0 003.22.57 11.5 11.5 0 002.64-.19 3.63 3.63 0 002.46-.94v10a1 1 0 01-.76 1 13.63 13.63 0 01-3.78.75 36.13 36.13 0 01-4.53.19 22.39 22.39 0 01-6-.75 11.83 11.83 0 01-7.94-6.24 15.51 15.51 0 01-1.13-5.86v-18.9a.89.89 0 00-.95-.94h-6.23a.9.9 0 01-1-1V268a.9.9 0 011-1h6.42a.89.89 0 00.95-.94v-10.37a.89.89 0 01.94-.95h11a.9.9 0 011 .95v10.58a.89.89 0 00.94.94h9.45a.9.9 0 01.95 1v8.31a1.07 1.07 0 01-.95 1.14zm9.45 24a8.82 8.82 0 01.57-3.22 5.7 5.7 0 011.7-2.45 6.94 6.94 0 012.46-1.7 8.73 8.73 0 013.21-.57 8 8 0 015.67 2.27 7.12 7.12 0 012.08 5.67 8.81 8.81 0 01-.57 3.21 5.88 5.88 0 01-1.7 2.46 7.3 7.3 0 01-2.46 1.7 9.48 9.48 0 01-6.42 0 7.75 7.75 0 01-4-4.16 8.81 8.81 0 01-.54-3.21zm26.27-53.48h38.93a.88.88 0 01.94.94v10.39a.89.89 0 01-.94 1h-25.51a.89.89 0 00-.95.94v10.4a.89.89 0 00.95.94H331a.89.89 0 01.94.95V284a.89.89 0 01-.94 1h-23.39a.89.89 0 00-.95.94V308a.89.89 0 01-.94 1h-11.53a.9.9 0 01-.95-1v-59a.89.89 0 01.95-.87zM394 285.54a30.26 30.26 0 01-1.7 10 21.74 21.74 0 01-12.85 13.23 32.92 32.92 0 01-22.49 0 21.71 21.71 0 01-12.85-13.23 30 30 0 01-1.7-10v-36.47a.89.89 0 01.94-.94h11.53a.89.89 0 01.95.94V285a16.3 16.3 0 00.94 5.29 11.71 11.71 0 006.43 7 12.67 12.67 0 009.82 0 8.07 8.07 0 003.78-2.83 11.59 11.59 0 002.46-4.16 16.3 16.3 0 00.94-5.29v-35.94a.89.89 0 01.95-.94h11.53a.89.89 0 01.94.94zm43.81 3.22a38.64 38.64 0 01-.75 8.12 16.12 16.12 0 01-2.84 7 16.37 16.37 0 01-5.86 4.92 26.21 26.21 0 01-10 1.89 21.62 21.62 0 01-12.29-3.4 15.52 15.52 0 01-6.42-9.64.84.84 0 01.75-1.14l10.4-2.45c.56-.19.94.19 1.13.75a5.86 5.86 0 001.89 2.84 6.12 6.12 0 004 1.51 5.84 5.84 0 003.59-1.13 5.91 5.91 0 001.89-2.84 12.16 12.16 0 00.76-3.78v-42.15a.89.89 0 01.94-.95h11.53a.89.89 0 01.94.95zM451 248.13h11.53a.89.89 0 01.94.94v59a.89.89 0 01-.94 1H451a.9.9 0 01-1-1v-59a.89.89 0 011-.94zm-333.88 99.21a.91.91 0 01-1.32 0 12.64 12.64 0 00-3.78-2.27 14.23 14.23 0 00-8.32-.57 7.41 7.41 0 00-2.83 1.14 5.32 5.32 0 00-1.14 9.07 19.41 19.41 0 005.29 2.46c2.08.75 4.35 1.32 6.81 2.07a36.78 36.78 0 016.8 2.84 17 17 0 015.29 5.1 15 15 0 012.08 8.51 20.93 20.93 0 01-1.89 8.88A16.74 16.74 0 01119 391a21.85 21.85 0 01-7.56 3.78 36.08 36.08 0 01-20-.57 25.5 25.5 0 01-8.7-5.29.92.92 0 010-1.32l8.13-8.88a1.16 1.16 0 011.32-.19l.19.19a20.49 20.49 0 004.54 3.4 15.19 15.19 0 006.42 1.51 18.61 18.61 0 003.22-.38 8.17 8.17 0 003-1.13 5.54 5.54 0 002.08-2.08 3.84 3.84 0 00.75-2.83 5.37 5.37 0 00-2.08-4.35 20 20 0 00-5.31-2.66c-2.08-.75-4.34-1.51-6.8-2.26a32.43 32.43 0 01-7-3 18.74 18.74 0 01-5.26-4.94 13.81 13.81 0 01-2.08-8.13 20.1 20.1 0 011.89-8.69 20.56 20.56 0 015.1-6.24 22.61 22.61 0 017.37-3.77 33.1 33.1 0 018.69-1.14 35.91 35.91 0 0110 1.51 26.85 26.85 0 017.94 4.16.92.92 0 010 1.32zm17.95-14.17h11.53a.88.88 0 01.94.94v20.79a.89.89 0 001 .94h24.19a.89.89 0 00.94-.94v-20.79a.89.89 0 01.95-.94h11.52a.89.89 0 01.95.94v59a.9.9 0 01-.95.95h-11.57a.9.9 0 01-.95-.95v-24.42a.89.89 0 00-.94-.94h-24.19a.89.89 0 00-1 .94v24.38a.89.89 0 01-.94.95h-11.48a.89.89 0 01-.94-.95v-59a1 1 0 01.94-.94zm113.58 37.41a30 30 0 01-1.71 10 21.55 21.55 0 01-4.91 7.94 22.67 22.67 0 01-7.94 5.29 32.89 32.89 0 01-22.48 0 23.43 23.43 0 01-8.13-5.29 21.12 21.12 0 01-4.72-7.94 30 30 0 01-1.7-10v-36.47a.88.88 0 01.94-.94h11.53a.89.89 0 01.94.94V370a12.61 12.61 0 001.14 5.29 11.9 11.9 0 002.64 4.15 15.24 15.24 0 004 2.84 10.8 10.8 0 004.91.94 14.15 14.15 0 004.92-.94 9.68 9.68 0 004-2.84 11 11 0 002.26-4.15 16.3 16.3 0 00.95-5.29v-35.89a.89.89 0 01.94-.94h11.47a.89.89 0 011 .94zm24.18-25.51h-15.3a.89.89 0 01-.95-.94v-10a.89.89 0 01.95-.94h46.3a.89.89 0 01.94.94v10a.89.89 0 01-.94.94h-15.5a.89.89 0 00-.94.95v47.05a.9.9 0 01-.95.95h-11.53a.89.89 0 01-.94-.95V346c-.19-.38-.57-.95-1.14-.95zm55.75 0h-15.49a.89.89 0 01-.95-.94v-10a.89.89 0 01.95-.94h46.3a.89.89 0 01.94.94v10a.89.89 0 01-.94.94h-15.5a.9.9 0 00-.95.95v47.05a.89.89 0 01-.94.95h-11.53a.89.89 0 01-.94-.95V346a.9.9 0 00-.95-.93zm40.82-11.9h39.5a.89.89 0 01.94.94v10.39a.89.89 0 01-.94.95h-26.08a.89.89 0 00-.95.94v9.45a.9.9 0 00.95 1h24.57a.89.89 0 01.94.94v10.4a.89.89 0 01-.94.94h-24.57a.9.9 0 00-.95.95v10.39a.89.89 0 00.95.94h27.59a.89.89 0 01.94.95v10.39a.89.89 0 01-.94.95h-41a.89.89 0 01-.94-.95v-59a1.28 1.28 0 01.94-.56zm50.65.94a.89.89 0 01.94-.94h22.49a35.31 35.31 0 018.88.94 21 21 0 017.37 3 15.94 15.94 0 014.92 5.67 20.94 20.94 0 011.89 8.89 17.48 17.48 0 01-3.22 11 14.35 14.35 0 01-8.5 5.48c-.57.18-.95.56-.76 1.13 0 .19 0 .19.19.19l14 23.05a.85.85 0 01-.38 1.33.7.7 0 01-.57.19h-13.8a1 1 0 01-.95-.57l-12.28-23.27a1 1 0 00-.76-.56h-5.1a.89.89 0 00-1 .94v22.49a.89.89 0 01-.94.95H421a.89.89 0 01-.94-.95zm13.41 23.43a.9.9 0 001 .95h10.77a11 11 0 003.59-.76 4.87 4.87 0 002.65-2.08 6.83 6.83 0 001.13-3.78 6.7 6.7 0 00-.94-3.78 6.61 6.61 0 00-2.46-2.07 7.66 7.66 0 00-3.4-.95 24 24 0 00-3.78-.19h-7.75a.89.89 0 00-.94.95zM43.8 432.38a.92.92 0 01-1.33 0 13.07 13.07 0 00-4.16-3A15.94 15.94 0 0031.7 428a17.24 17.24 0 00-7 1.51 17 17 0 00-5.7 4.19 21.11 21.11 0 00-3.78 6.24 22.39 22.39 0 000 15.68 20.73 20.73 0 003.59 6.24 20.1 20.1 0 005.52 4.14 16.39 16.39 0 006.8 1.51 16.85 16.85 0 007.37-1.7 16.13 16.13 0 004.73-4c.38-.38.94-.57 1.32-.19l9.64 7.18c.38.38.57.95.19 1.32a21.59 21.59 0 01-9.26 7.18 29.74 29.74 0 01-12.29 2.7 39.73 39.73 0 01-13.22-2.27 30 30 0 01-10.4-6.42 27.84 27.84 0 01-6.8-10 37.56 37.56 0 010-26.46 26.26 26.26 0 016.8-10 30 30 0 0110.4-6.43 38.91 38.91 0 0113.22-2.26 26.76 26.76 0 015.48.56 26.79 26.79 0 015.49 1.51 29 29 0 015.29 2.77 16.36 16.36 0 013.78 3.4.92.92 0 010 1.32zm19.08-15.12h11.53a.89.89 0 01.94.94V439a.9.9 0 001 .95h24.19a.89.89 0 00.94-.95v-20.8a.89.89 0 01.95-.94h11.53a.89.89 0 01.94.94v59a.89.89 0 01-.94.94h-11.58a.89.89 0 01-.95-.94v-24.41a.89.89 0 00-.94-1H76.3a.9.9 0 00-1 1v24.38a.89.89 0 01-.94.94H62.88a.89.89 0 01-.94-.94v-59a1 1 0 01.94-.94zm85.42 0h9.83a1 1 0 01.94.57l25.7 59a1 1 0 01-.57 1.32h-13.41a1 1 0 01-.95-.57l-4.72-11.71a1 1 0 00-1-.57h-22.3a1 1 0 00-.94.57l-4.54 11.71a1 1 0 01-.94.57h-12.8a.89.89 0 01-.95-.94v-.38l25.89-59c.19-.38.38-.57.76-.57zm3.59 20l-6 15.31a1 1 0 00.57 1.32h12.47a.89.89 0 001-.94v-.38l-6.05-15.31a1 1 0 00-1.32-.57q-.38.03-.67.6zm40.82-20h16.82c.38 0 .56.19.75.57L236 459.59h.19v-41.2a.89.89 0 011-.94h11.53a.89.89 0 01.94.94v59a.89.89 0 01-.94.95h-16.14a1 1 0 01-.75-.38L205.56 435h-.19v42.33a.89.89 0 01-.94.95h-11.72a.9.9 0 01-1-.95v-59c.05-.69.43-1.07 1-1.07zm109.42 15.12a.92.92 0 01-1.33 0 12 12 0 00-4.34-3 16.94 16.94 0 00-19.28 4.35 21.32 21.32 0 00-3.78 6.24 24.74 24.74 0 000 15.68 20.73 20.73 0 003.59 6.24 20.1 20.1 0 005.48 4.16 16.4 16.4 0 006.81 1.51 16.92 16.92 0 007.37-1.7 16.09 16.09 0 004.72-4c.38-.38.94-.57 1.32-.19l9.64 7.18c.38.38.57.95.19 1.32a21.59 21.59 0 01-9.26 7.18A29.73 29.73 0 01291 480a39.75 39.75 0 01-13.23-2.27 30 30 0 01-10.4-6.42 27.84 27.84 0 01-6.8-10 37.56 37.56 0 010-26.46 27.8 27.8 0 016.8-10 30 30 0 0110.4-6.43 39 39 0 0113.23-2.29 26.83 26.83 0 015.48.56 26.52 26.52 0 015.48 1.51 29 29 0 015.29 2.84 21.45 21.45 0 013.78 3.4.91.91 0 010 1.32zm19.27-15.12h39.5a.89.89 0 01.94.94v10.4a.89.89 0 01-.94.94h-26.08a.9.9 0 00-.95.95v9.45a.89.89 0 00.95.94h24.57a.89.89 0 01.94.95v10.58a.89.89 0 01-.94.94h-24.57a.9.9 0 00-.95.95v10.39a.9.9 0 00.95.95h27.59a.89.89 0 01.94.94V477a.89.89 0 01-.94.94h-41a.89.89 0 01-.94-.94v-59.17c-.01-.19.36-.57.93-.57zm80.88 0h16.82c.38 0 .57.19.76.57l25.7 41.76h.19v-41.2a.89.89 0 01.94-.94h11.53a.89.89 0 01.95.94v59a.9.9 0 01-.95.95h-16.06a1 1 0 01-.76-.38L415.13 435h-.19v42.33a.89.89 0 01-.94.95h-11.53a.89.89 0 01-.94-.95v-59c-.19-.69.19-1.07.75-1.07zm91.09 0h9.83a1 1 0 01.94.57l25.7 59a1.24 1.24 0 01-.38 1.32h-13.6a1 1 0 01-1-.57l-4.72-11.71a1 1 0 00-.95-.57h-22.43a1 1 0 00-.95.57l-4.72 11.71a1 1 0 01-.95.57h-12.66a.89.89 0 01-.94-.94v-.38l25.51-59c.56-.38.95-.76 1.32-.57zm3.78 20l-6 15.31a1.15 1.15 0 00.57 1.32H504a.89.89 0 00.95-.94v-.38l-6-15.31a1.08 1.08 0 00-1.32-.38.41.41 0 00-.48.41zm27.21-20h13.23a1 1 0 01.95.57l14.74 39.3h.18l15.12-39.3a1 1 0 01.95-.57h12.28a1 1 0 011 .94v.38l-24.19 59a1 1 0 01-1 .57H548a1 1 0 01-.94-.57l-23.62-59a1 1 0 01.56-1.32zm66.33 0h11.53a.89.89 0 01.95.94v59a.89.89 0 01-.95.94h-11.53a.89.89 0 01-.94-.94v-59a.89.89 0 01.94-.94z" fill="#fff"/></g></g></g></g></svg>